REM MD5 a414b8650e7cfee59bbbf193cfadabb9
FILE "Option - Tuning Car Battle (Japan) (Demo 1).bin" BINARY
  TRACK 01 MODE2/2352
    INDEX 01 00:00:00
  TRACK 02 AUDIO
    INDEX 00 40:39:17
    INDEX 01 40:41:17
  TRACK 03 AUDIO
    INDEX 00 43:34:02
    INDEX 01 43:36:02
  TRACK 04 AUDIO
    INDEX 00 45:34:52
    INDEX 01 45:36:52
  TRACK 05 AUDIO
    INDEX 00 48:07:52
    INDEX 01 48:09:52
REM LEADOUT 53:55:22
